<?xml version="1.0" encoding="utf-8"?>
<!-- Generator: Adobe Illustrator 23.0.6, SVG Export Plug-In . SVG Version: 6.00 Build 0)  -->
<svg version="1.1" id="Layer_1" xmlns="http://www.w3.org/2000/svg" xmlns:xlink="http://www.w3.org/1999/xlink" x="0px" y="0px"
	 viewBox="0 0 325 29.5" style="enable-background:new 0 0 325 29.5;" xml:space="preserve">
<g>
	<path d="M7.8,28.8H0V0.7h7.8V28.8z"/>
	<path d="M17.7,28.8h-3.6V0.7h5L36.2,20V0.7h3.6v28.1h-5L17.7,9.6V28.8z"/>
	<path d="M54,28.8h-7.8V0.7h15.2c1.3,0,2.6,0.2,3.8,0.5c1.2,0.4,2.3,0.9,3.2,1.6c0.9,0.7,1.7,1.6,2.2,2.7c0.6,1.1,0.8,2.3,0.8,3.8
		c0,0.9-0.1,1.8-0.4,2.6c-0.3,0.8-0.6,1.5-1.1,2.2c-0.5,0.7-1,1.3-1.6,1.8c-0.6,0.5-1.3,1-2.1,1.4c-0.7,0.4-1.5,0.6-2.3,0.8
		c-0.8,0.2-1.7,0.3-2.5,0.3H54L54,28.8L54,28.8z M63.5,9.3c0-1.8-0.5-3.2-1.4-4.3S59.9,3.5,58,3.5h-4.1v12.2H58c1,0,1.8-0.2,2.5-0.5
		c0.7-0.3,1.3-0.8,1.7-1.3c0.4-0.6,0.8-1.2,1-2C63.5,11.1,63.5,10.2,63.5,9.3z"/>
	<path d="M104.8,14.7c0,2.3-0.4,4.3-1.2,6.1s-1.9,3.4-3.2,4.6c-1.4,1.3-3,2.2-4.9,2.9s-3.9,1-6.1,1s-4.2-0.3-6.1-1
		c-1.9-0.7-3.5-1.6-4.9-2.9c-1.4-1.3-2.5-2.8-3.2-4.6s-1.2-3.9-1.2-6.1c0-2.3,0.4-4.4,1.2-6.2c0.8-1.8,1.8-3.3,3.2-4.6
		s3-2.2,4.9-2.9s3.9-1,6.2-1s4.3,0.3,6.2,1s3.5,1.6,4.9,2.9s2.4,2.8,3.2,4.6C104.4,10.4,104.8,12.4,104.8,14.7z M96.9,14.7
		c0-0.9,0-1.7-0.1-2.6s-0.2-1.8-0.4-2.6s-0.5-1.6-0.8-2.4c-0.3-0.7-0.8-1.4-1.4-1.9c-0.6-0.6-1.2-1-2-1.3c-0.8-0.3-1.7-0.5-2.8-0.5
		c-1.1,0-2,0.2-2.8,0.5s-1.5,0.8-2,1.3s-1,1.2-1.4,1.9s-0.6,1.5-0.8,2.4c-0.2,0.8-0.3,1.7-0.4,2.6s-0.1,1.8-0.1,2.7
		c0,0.9,0,1.7,0.1,2.6s0.2,1.8,0.4,2.6s0.5,1.6,0.8,2.4s0.8,1.4,1.4,1.9c0.6,0.5,1.2,1,2,1.3c0.8,0.3,1.7,0.5,2.8,0.5
		c1,0,1.9-0.2,2.7-0.5s1.4-0.8,2-1.4s1-1.2,1.4-2s0.7-1.5,0.9-2.4s0.4-1.7,0.5-2.6C96.9,16.4,96.9,15.6,96.9,14.7z"/>
	<path d="M113.2,28.8h-3.6V0.7h5L131.8,20V0.7h3.6v28.1h-5L113.2,9.5L113.2,28.8L113.2,28.8z"/>
	<path d="M161.9,28.8h-20.2V0.7h20.2v3.6h-12.4V13h9.6v3.6h-9.6v8.7h12.4V28.8z"/>
	<path d="M185.8,28.8H178V0.7h15.2c1.3,0,2.6,0.2,3.8,0.5c1.2,0.4,2.3,0.9,3.2,1.6s1.7,1.6,2.2,2.7c0.6,1.1,0.8,2.3,0.8,3.8
		c0,0.9-0.1,1.8-0.4,2.6c-0.3,0.8-0.6,1.5-1.1,2.2c-0.5,0.7-1,1.3-1.6,1.8c-0.6,0.5-1.3,1-2.1,1.4c-0.7,0.4-1.5,0.6-2.4,0.8
		c-0.8,0.2-1.7,0.3-2.5,0.3h-7.4L185.8,28.8L185.8,28.8z M195.4,9.3c0-1.8-0.5-3.2-1.4-4.3s-2.3-1.5-4.1-1.5h-4.1v12.2h4.1
		c1,0,1.8-0.2,2.5-0.5s1.3-0.8,1.7-1.3c0.4-0.6,0.8-1.2,1-2C195.3,11.1,195.4,10.2,195.4,9.3z"/>
	<path d="M215,28.8h-7.8V0.7h7.8V13h10.3V0.7h7.8v28.1h-7.8V16.6H215V28.8z"/>
	<path d="M268.8,14.7c0,2.3-0.4,4.3-1.2,6.1s-1.9,3.4-3.2,4.6c-1.4,1.3-3,2.2-4.9,2.9s-3.9,1-6.1,1s-4.2-0.3-6.1-1s-3.5-1.6-4.9-2.9
		c-1.4-1.3-2.5-2.8-3.2-4.6s-1.2-3.9-1.2-6.1c0-2.3,0.4-4.4,1.2-6.2c0.8-1.8,1.9-3.3,3.2-4.6s3-2.2,4.9-2.9s3.9-1,6.2-1
		s4.3,0.3,6.2,1s3.5,1.6,4.9,2.9c1.4,1.3,2.5,2.8,3.2,4.6S268.8,12.4,268.8,14.7z M260.9,14.7c0-0.9,0-1.7-0.1-2.6s-0.2-1.8-0.4-2.6
		s-0.5-1.6-0.9-2.4s-0.8-1.4-1.4-1.9s-1.2-1-2-1.3c-0.8-0.3-1.7-0.5-2.8-0.5c-1.1,0-2,0.2-2.8,0.5s-1.5,0.8-2,1.3s-1,1.2-1.4,1.9
		s-0.6,1.5-0.8,2.4s-0.3,1.7-0.4,2.6s-0.1,1.8-0.1,2.7c0,0.9,0,1.7,0.1,2.6s0.2,1.8,0.4,2.6s0.5,1.6,0.9,2.4s0.8,1.4,1.4,1.9
		c0.6,0.5,1.2,1,2,1.3c0.8,0.3,1.7,0.5,2.8,0.5c1,0,1.9-0.2,2.7-0.5s1.4-0.8,2-1.4s1-1.2,1.4-2s0.7-1.5,0.9-2.4s0.4-1.7,0.5-2.6
		C260.9,16.4,260.9,15.6,260.9,14.7z"/>
	<path d="M285.3,28.8h-7.8V4.3h-7.7V0.7H293v3.6h-7.7V28.8z"/>
	<path d="M325,14.7c0,2.3-0.4,4.3-1.2,6.1s-1.9,3.4-3.2,4.6c-1.4,1.3-3,2.2-4.9,2.9s-3.9,1-6.1,1s-4.2-0.3-6.1-1s-3.5-1.6-4.9-2.9
		s-2.5-2.8-3.2-4.6s-1.2-3.9-1.2-6.1c0-2.3,0.4-4.4,1.2-6.2s1.9-3.3,3.2-4.6s3-2.2,4.9-2.9s4-1,6.2-1s4.3,0.3,6.2,1s3.5,1.6,4.9,2.9
		c1.4,1.3,2.5,2.8,3.2,4.6S325,12.4,325,14.7z M317.1,14.7c0-0.9,0-1.7-0.1-2.6s-0.2-1.8-0.4-2.6s-0.5-1.6-0.9-2.4s-0.8-1.4-1.4-1.9
		s-1.2-1-2-1.3c-0.8-0.3-1.7-0.5-2.8-0.5c-1.1,0-2,0.2-2.8,0.5s-1.5,0.8-2,1.3s-1,1.2-1.4,1.9s-0.6,1.5-0.8,2.4s-0.3,1.7-0.4,2.6
		c-0.1,0.9-0.1,1.8-0.1,2.7c0,0.9,0,1.7,0.1,2.6s0.2,1.8,0.4,2.6s0.5,1.6,0.9,2.4s0.8,1.4,1.4,1.9c0.6,0.5,1.2,1,2,1.3
		c0.8,0.3,1.7,0.5,2.8,0.5c1,0,1.9-0.2,2.7-0.5s1.4-0.8,2-1.4s1-1.2,1.4-2s0.7-1.5,0.9-2.4s0.4-1.7,0.5-2.6
		C317.1,16.4,317.1,15.6,317.1,14.7z"/>
</g>
</svg>
